<svg id="arrow-right" xmlns="http://www.w3.org/2000/svg" width="27.003" height="15.753" viewBox="0 0 27.003 15.753">
  <path id="Trazado_30" data-name="Trazado 30" d="M.332,15.423a1.125,1.125,0,0,0,1.593,0l6.75-6.75a1.125,1.125,0,0,0,0-1.593L1.925.33A1.126,1.126,0,1,0,.332,1.923L6.287,7.877.331,13.831a1.125,1.125,0,0,0,0,1.593Z" transform="translate(17.997)" fill-rule="evenodd"/>
  <path id="Trazado_31" data-name="Trazado 31" d="M0,1.125A1.125,1.125,0,0,0,1.125,2.25H24.75a1.125,1.125,0,0,0,0-2.25H1.125A1.125,1.125,0,0,0,0,1.125Z" transform="translate(0 6.752)" fill-rule="evenodd"/>
</svg>
